solid OpenSCAD_Model
  facet normal 1 0 0
    outer loop
      vertex 2 5.5 22
      vertex 2 0.951056 13.691
      vertex 2 5.5 2
    endloop
  endfacet
  facet normal 1 0 0
    outer loop
      vertex 2 5.5 22
      vertex 2 0.587785 14.809
      vertex 2 0.951056 13.691
    endloop
  endfacet
  facet normal 1 0 0
    outer loop
      vertex 2 5.5 22
      vertex 2 -0.587785 14.809
      vertex 2 0.587785 14.809
    endloop
  endfacet
  facet normal 1 0 0
    outer loop
      vertex 2 -0.587785 14.809
      vertex 2 -5.5 22
      vertex 2 -0.951056 13.691
    endloop
  endfacet
  facet normal 1 -0 0
    outer loop
      vertex 2 -5.5 22
      vertex 2 -0.587785 14.809
      vertex 2 5.5 22
    endloop
  endfacet
  facet normal 1 -0 0
    outer loop
      vertex 2 0 13
      vertex 2 5.5 2
      vertex 2 0.951056 13.691
    endloop
  endfacet
  facet normal 1 0 0
    outer loop
      vertex 2 -5.5 2
      vertex 2 0 13
      vertex 2 -0.951056 13.691
    endloop
  endfacet
  facet normal 1 0 0
    outer loop
      vertex 2 0 13
      vertex 2 -5.5 2
      vertex 2 5.5 2
    endloop
  endfacet
  facet normal 1 0 0
    outer loop
      vertex 2 -5.5 2
      vertex 2 -0.951056 13.691
      vertex 2 -5.5 22
    endloop
  endfacet
  facet normal 0 0 -1
    outer loop
      vertex 2 -5.5 22
      vertex 3 5.5 22
      vertex 3 -5.5 22
    endloop
  endfacet
  facet normal -0 0 -1
    outer loop
      vertex 3 5.5 22
      vertex 2 -5.5 22
      vertex 2 5.5 22
    endloop
  endfacet
  facet normal -1 0 0
    outer loop
      vertex 22 -5.5 2
      vertex 22 5.5 3
      vertex 22 5.5 2
    endloop
  endfacet
  facet normal -1 -0 0
    outer loop
      vertex 22 5.5 3
      vertex 22 -5.5 2
      vertex 22 -5.5 3
    endloop
  endfacet
  facet normal 0 0 1
    outer loop
      vertex 22 5.5 2
      vertex 15 0 2
      vertex 22 -5.5 2
    endloop
  endfacet
  facet normal 0 0 1
    outer loop
      vertex 22 5.5 2
      vertex 14.309 0.951056 2
      vertex 15 0 2
    endloop
  endfacet
  facet normal -0 0 1
    outer loop
      vertex 2 5.5 2
      vertex 14.309 0.951056 2
      vertex 22 5.5 2
    endloop
  endfacet
  facet normal 0 0 1
    outer loop
      vertex 13.191 0.587785 2
      vertex 2 5.5 2
      vertex 13.191 -0.587785 2
    endloop
  endfacet
  facet normal 0 0 1
    outer loop
      vertex 14.309 0.951056 2
      vertex 2 5.5 2
      vertex 13.191 0.587785 2
    endloop
  endfacet
  facet normal -0 0 1
    outer loop
      vertex 14.309 -0.951056 2
      vertex 22 -5.5 2
      vertex 15 0 2
    endloop
  endfacet
  facet normal 0 0 1
    outer loop
      vertex 2 -5.5 2
      vertex 14.309 -0.951056 2
      vertex 13.191 -0.587785 2
    endloop
  endfacet
  facet normal 0 0 1
    outer loop
      vertex 2 -5.5 2
      vertex 13.191 -0.587785 2
      vertex 2 5.5 2
    endloop
  endfacet
  facet normal 0 0 1
    outer loop
      vertex 14.309 -0.951056 2
      vertex 2 -5.5 2
      vertex 22 -5.5 2
    endloop
  endfacet
  facet normal 0 1 0
    outer loop
      vertex 2 -5.5 2
      vertex 3 -5.5 22
      vertex 22 -5.5 3
    endloop
  endfacet
  facet normal 0 1 0
    outer loop
      vertex 2 -5.5 2
      vertex 22 -5.5 3
      vertex 22 -5.5 2
    endloop
  endfacet
  facet normal 0 1 0
    outer loop
      vertex 3 -5.5 22
      vertex 2 -5.5 2
      vertex 2 -5.5 22
    endloop
  endfacet
  facet normal 0 -1 0
    outer loop
      vertex 2 5.5 2
      vertex 3 5.5 22
      vertex 2 5.5 22
    endloop
  endfacet
  facet normal 0 -1 -0
    outer loop
      vertex 3 5.5 22
      vertex 2 5.5 2
      vertex 22 5.5 3
    endloop
  endfacet
  facet normal 0 -1 -0
    outer loop
      vertex 22 5.5 3
      vertex 2 5.5 2
      vertex 22 5.5 2
    endloop
  endfacet
  facet normal -0.809017 -0.587786 0
    outer loop
      vertex 15 0 0
      vertex 14.309 0.951056 2
      vertex 14.309 0.951056 0
    endloop
  endfacet
  facet normal -0.809017 -0.587786 0
    outer loop
      vertex 14.309 0.951056 2
      vertex 15 0 0
      vertex 15 0 2
    endloop
  endfacet
  facet normal 1 -0 0
    outer loop
      vertex 13.191 -0.587785 2
      vertex 13.191 0.587785 0
      vertex 13.191 0.587785 2
    endloop
  endfacet
  facet normal 1 0 0
    outer loop
      vertex 13.191 0.587785 0
      vertex 13.191 -0.587785 2
      vertex 13.191 -0.587785 0
    endloop
  endfacet
  facet normal 0.309017 -0.951056 0
    outer loop
      vertex 13.191 0.587785 0
      vertex 14.309 0.951056 2
      vertex 13.191 0.587785 2
    endloop
  endfacet
  facet normal 0.309017 -0.951056 0
    outer loop
      vertex 14.309 0.951056 2
      vertex 13.191 0.587785 0
      vertex 14.309 0.951056 0
    endloop
  endfacet
  facet normal -0.809017 0.587786 0
    outer loop
      vertex 14.309 -0.951056 0
      vertex 15 0 2
      vertex 15 0 0
    endloop
  endfacet
  facet normal -0.809017 0.587786 0
    outer loop
      vertex 15 0 2
      vertex 14.309 -0.951056 0
      vertex 14.309 -0.951056 2
    endloop
  endfacet
  facet normal 0.309017 0.951056 -0
    outer loop
      vertex 14.309 -0.951056 0
      vertex 13.191 -0.587785 2
      vertex 14.309 -0.951056 2
    endloop
  endfacet
  facet normal 0.309017 0.951056 0
    outer loop
      vertex 13.191 -0.587785 2
      vertex 14.309 -0.951056 0
      vertex 13.191 -0.587785 0
    endloop
  endfacet
  facet normal 0 -0.587785 0.809017
    outer loop
      vertex 0 0.951056 13.691
      vertex 2 0 13
      vertex 2 0.951056 13.691
    endloop
  endfacet
  facet normal 0 -0.587785 0.809017
    outer loop
      vertex 2 0 13
      vertex 0 0.951056 13.691
      vertex 0 0 13
    endloop
  endfacet
  facet normal 0 0 -1
    outer loop
      vertex 0 -0.587785 14.809
      vertex 2 0.587785 14.809
      vertex 2 -0.587785 14.809
    endloop
  endfacet
  facet normal -0 0 -1
    outer loop
      vertex 2 0.587785 14.809
      vertex 0 -0.587785 14.809
      vertex 0 0.587785 14.809
    endloop
  endfacet
  facet normal 0 -0.951056 -0.309017
    outer loop
      vertex 0 0.951056 13.691
      vertex 2 0.587785 14.809
      vertex 0 0.587785 14.809
    endloop
  endfacet
  facet normal 0 -0.951056 -0.309017
    outer loop
      vertex 2 0.587785 14.809
      vertex 0 0.951056 13.691
      vertex 2 0.951056 13.691
    endloop
  endfacet
  facet normal 0 0.951056 -0.309017
    outer loop
      vertex 2 -0.951056 13.691
      vertex 0 -0.587785 14.809
      vertex 2 -0.587785 14.809
    endloop
  endfacet
  facet normal 0 0.951056 -0.309017
    outer loop
      vertex 0 -0.587785 14.809
      vertex 2 -0.951056 13.691
      vertex 0 -0.951056 13.691
    endloop
  endfacet
  facet normal -0 0.587785 0.809017
    outer loop
      vertex 0 0 13
      vertex 2 -0.951056 13.691
      vertex 2 0 13
    endloop
  endfacet
  facet normal 0 0.587785 0.809017
    outer loop
      vertex 2 -0.951056 13.691
      vertex 0 0 13
      vertex 0 -0.951056 13.691
    endloop
  endfacet
  facet normal -0.707107 0 -0.707107
    outer loop
      vertex 2.65685 -7.5 0
      vertex 0 7.5 2.65685
      vertex 2.65685 7.5 0
    endloop
  endfacet
  facet normal -0.707107 -0 -0.707107
    outer loop
      vertex 0 7.5 2.65685
      vertex 2.65685 -7.5 0
      vertex 0 -7.5 2.65685
    endloop
  endfacet
  facet normal 0 1 0
    outer loop
      vertex 25 7.5 0
      vertex 0 7.5 2.65685
      vertex 0 7.5 25
    endloop
  endfacet
  facet normal 0 1 0
    outer loop
      vertex 0 7.5 2.65685
      vertex 25 7.5 0
      vertex 2.65685 7.5 0
    endloop
  endfacet
  facet normal 0 0 -1
    outer loop
      vertex 25 -7.5 0
      vertex 15 0 0
      vertex 25 7.5 0
    endloop
  endfacet
  facet normal 0 0 -1
    outer loop
      vertex 25 -7.5 0
      vertex 14.309 -0.951056 0
      vertex 15 0 0
    endloop
  endfacet
  facet normal 0 0 -1
    outer loop
      vertex 2.65685 -7.5 0
      vertex 14.309 -0.951056 0
      vertex 25 -7.5 0
    endloop
  endfacet
  facet normal -0 0 -1
    outer loop
      vertex 13.191 -0.587785 0
      vertex 2.65685 -7.5 0
      vertex 13.191 0.587785 0
    endloop
  endfacet
  facet normal -0 0 -1
    outer loop
      vertex 14.309 -0.951056 0
      vertex 2.65685 -7.5 0
      vertex 13.191 -0.587785 0
    endloop
  endfacet
  facet normal 0 0 -1
    outer loop
      vertex 14.309 0.951056 0
      vertex 25 7.5 0
      vertex 15 0 0
    endloop
  endfacet
  facet normal 0 0 -1
    outer loop
      vertex 2.65685 7.5 0
      vertex 14.309 0.951056 0
      vertex 13.191 0.587785 0
    endloop
  endfacet
  facet normal 0 0 -1
    outer loop
      vertex 14.309 0.951056 0
      vertex 2.65685 7.5 0
      vertex 25 7.5 0
    endloop
  endfacet
  facet normal 0 0 -1
    outer loop
      vertex 2.65685 7.5 0
      vertex 13.191 0.587785 0
      vertex 2.65685 -7.5 0
    endloop
  endfacet
  facet normal -1 0 0
    outer loop
      vertex 0 7.5 2.65685
      vertex 0 0.951056 13.691
      vertex 0 7.5 25
    endloop
  endfacet
  facet normal -1 0 0
    outer loop
      vertex 0 7.5 2.65685
      vertex 0 0 13
      vertex 0 0.951056 13.691
    endloop
  endfacet
  facet normal -1 0 0
    outer loop
      vertex 0 -7.5 2.65685
      vertex 0 0 13
      vertex 0 7.5 2.65685
    endloop
  endfacet
  facet normal -1 -0 0
    outer loop
      vertex 0 -0.951056 13.691
      vertex 0 -7.5 2.65685
      vertex 0 -7.5 25
    endloop
  endfacet
  facet normal -1 -0 0
    outer loop
      vertex 0 0 13
      vertex 0 -7.5 2.65685
      vertex 0 -0.951056 13.691
    endloop
  endfacet
  facet normal -1 0 0
    outer loop
      vertex 0 0.587785 14.809
      vertex 0 7.5 25
      vertex 0 0.951056 13.691
    endloop
  endfacet
  facet normal -1 0 0
    outer loop
      vertex 0 -0.587785 14.809
      vertex 0 7.5 25
      vertex 0 0.587785 14.809
    endloop
  endfacet
  facet normal -1 0 0
    outer loop
      vertex 0 -0.587785 14.809
      vertex 0 -7.5 25
      vertex 0 7.5 25
    endloop
  endfacet
  facet normal -1 0 0
    outer loop
      vertex 0 -7.5 25
      vertex 0 -0.587785 14.809
      vertex 0 -0.951056 13.691
    endloop
  endfacet
  facet normal 4.26831e-08 -1 4.26831e-08
    outer loop
      vertex 2.65685 -7.5 0
      vertex 0 -7.5 25
      vertex 0 -7.5 2.65685
    endloop
  endfacet
  facet normal 0 -1 3.8147e-08
    outer loop
      vertex 0 -7.5 25
      vertex 2.65685 -7.5 0
      vertex 25 -7.5 0
    endloop
  endfacet
  facet normal 0.707107 0 0.707107
    outer loop
      vertex 0 7.5 25
      vertex 3 5.5 22
      vertex 25 7.5 0
    endloop
  endfacet
  facet normal 0.707107 0 0.707107
    outer loop
      vertex 0 7.5 25
      vertex 3 -5.5 22
      vertex 3 5.5 22
    endloop
  endfacet
  facet normal 0.707107 0 0.707107
    outer loop
      vertex 3 -5.5 22
      vertex 0 -7.5 25
      vertex 22 -5.5 3
    endloop
  endfacet
  facet normal 0.707107 -0 0.707107
    outer loop
      vertex 0 -7.5 25
      vertex 3 -5.5 22
      vertex 0 7.5 25
    endloop
  endfacet
  facet normal 0.707107 0 0.707107
    outer loop
      vertex 22 5.5 3
      vertex 25 7.5 0
      vertex 3 5.5 22
    endloop
  endfacet
  facet normal 0.707107 -0 0.707107
    outer loop
      vertex 22 -5.5 3
      vertex 25 7.5 0
      vertex 22 5.5 3
    endloop
  endfacet
  facet normal 0.707107 0 0.707107
    outer loop
      vertex 22 -5.5 3
      vertex 25 -7.5 0
      vertex 25 7.5 0
    endloop
  endfacet
  facet normal 0.707107 0 0.707107
    outer loop
      vertex 25 -7.5 0
      vertex 22 -5.5 3
      vertex 0 -7.5 25
    endloop
  endfacet
  facet normal 1 0 0
    outer loop
      vertex 42 5.5 22
      vertex 42 0.951056 13.691
      vertex 42 5.5 2
    endloop
  endfacet
  facet normal 1 0 0
    outer loop
      vertex 42 5.5 22
      vertex 42 0.587785 14.809
      vertex 42 0.951056 13.691
    endloop
  endfacet
  facet normal 1 0 0
    outer loop
      vertex 42 5.5 22
      vertex 42 -0.587785 14.809
      vertex 42 0.587785 14.809
    endloop
  endfacet
  facet normal 1 0 0
    outer loop
      vertex 42 -0.587785 14.809
      vertex 42 -5.5 22
      vertex 42 -0.951056 13.691
    endloop
  endfacet
  facet normal 1 -0 0
    outer loop
      vertex 42 -5.5 22
      vertex 42 -0.587785 14.809
      vertex 42 5.5 22
    endloop
  endfacet
  facet normal 1 -0 0
    outer loop
      vertex 42 0 13
      vertex 42 5.5 2
      vertex 42 0.951056 13.691
    endloop
  endfacet
  facet normal 1 0 0
    outer loop
      vertex 42 -5.5 2
      vertex 42 0 13
      vertex 42 -0.951056 13.691
    endloop
  endfacet
  facet normal 1 0 0
    outer loop
      vertex 42 0 13
      vertex 42 -5.5 2
      vertex 42 5.5 2
    endloop
  endfacet
  facet normal 1 0 0
    outer loop
      vertex 42 -5.5 2
      vertex 42 -0.951056 13.691
      vertex 42 -5.5 22
    endloop
  endfacet
  facet normal 0 0 -1
    outer loop
      vertex 42 -5.5 22
      vertex 43 5.5 22
      vertex 43 -5.5 22
    endloop
  endfacet
  facet normal -0 0 -1
    outer loop
      vertex 43 5.5 22
      vertex 42 -5.5 22
      vertex 42 5.5 22
    endloop
  endfacet
  facet normal -1 0 0
    outer loop
      vertex 62 -5.5 2
      vertex 62 5.5 3
      vertex 62 5.5 2
    endloop
  endfacet
  facet normal -1 -0 0
    outer loop
      vertex 62 5.5 3
      vertex 62 -5.5 2
      vertex 62 -5.5 3
    endloop
  endfacet
  facet normal 0 0 1
    outer loop
      vertex 62 5.5 2
      vertex 55 0 2
      vertex 62 -5.5 2
    endloop
  endfacet
  facet normal 0 0 1
    outer loop
      vertex 62 5.5 2
      vertex 54.309 0.951056 2
      vertex 55 0 2
    endloop
  endfacet
  facet normal -0 0 1
    outer loop
      vertex 42 5.5 2
      vertex 54.309 0.951056 2
      vertex 62 5.5 2
    endloop
  endfacet
  facet normal 0 0 1
    outer loop
      vertex 53.191 0.587785 2
      vertex 42 5.5 2
      vertex 53.191 -0.587785 2
    endloop
  endfacet
  facet normal 0 0 1
    outer loop
      vertex 54.309 0.951056 2
      vertex 42 5.5 2
      vertex 53.191 0.587785 2
    endloop
  endfacet
  facet normal -0 0 1
    outer loop
      vertex 54.309 -0.951056 2
      vertex 62 -5.5 2
      vertex 55 0 2
    endloop
  endfacet
  facet normal 0 0 1
    outer loop
      vertex 42 -5.5 2
      vertex 54.309 -0.951056 2
      vertex 53.191 -0.587785 2
    endloop
  endfacet
  facet normal 0 0 1
    outer loop
      vertex 42 -5.5 2
      vertex 53.191 -0.587785 2
      vertex 42 5.5 2
    endloop
  endfacet
  facet normal 0 0 1
    outer loop
      vertex 54.309 -0.951056 2
      vertex 42 -5.5 2
      vertex 62 -5.5 2
    endloop
  endfacet
  facet normal 0 1 0
    outer loop
      vertex 42 -5.5 2
      vertex 43 -5.5 22
      vertex 62 -5.5 3
    endloop
  endfacet
  facet normal 0 1 0
    outer loop
      vertex 42 -5.5 2
      vertex 62 -5.5 3
      vertex 62 -5.5 2
    endloop
  endfacet
  facet normal 0 1 0
    outer loop
      vertex 43 -5.5 22
      vertex 42 -5.5 2
      vertex 42 -5.5 22
    endloop
  endfacet
  facet normal 0 -1 0
    outer loop
      vertex 42 5.5 2
      vertex 43 5.5 22
      vertex 42 5.5 22
    endloop
  endfacet
  facet normal 0 -1 -0
    outer loop
      vertex 43 5.5 22
      vertex 42 5.5 2
      vertex 62 5.5 3
    endloop
  endfacet
  facet normal 0 -1 -0
    outer loop
      vertex 62 5.5 3
      vertex 42 5.5 2
      vertex 62 5.5 2
    endloop
  endfacet
  facet normal -0.809017 -0.587785 0
    outer loop
      vertex 55 0 0
      vertex 54.309 0.951056 2
      vertex 54.309 0.951056 0
    endloop
  endfacet
  facet normal -0.809017 -0.587785 0
    outer loop
      vertex 54.309 0.951056 2
      vertex 55 0 0
      vertex 55 0 2
    endloop
  endfacet
  facet normal 1 -0 0
    outer loop
      vertex 53.191 -0.587785 2
      vertex 53.191 0.587785 0
      vertex 53.191 0.587785 2
    endloop
  endfacet
  facet normal 1 0 0
    outer loop
      vertex 53.191 0.587785 0
      vertex 53.191 -0.587785 2
      vertex 53.191 -0.587785 0
    endloop
  endfacet
  facet normal 0.309017 -0.951056 0
    outer loop
      vertex 53.191 0.587785 0
      vertex 54.309 0.951056 2
      vertex 53.191 0.587785 2
    endloop
  endfacet
  facet normal 0.309017 -0.951056 0
    outer loop
      vertex 54.309 0.951056 2
      vertex 53.191 0.587785 0
      vertex 54.309 0.951056 0
    endloop
  endfacet
  facet normal -0.809017 0.587785 0
    outer loop
      vertex 54.309 -0.951056 0
      vertex 55 0 2
      vertex 55 0 0
    endloop
  endfacet
  facet normal -0.809017 0.587785 0
    outer loop
      vertex 55 0 2
      vertex 54.309 -0.951056 0
      vertex 54.309 -0.951056 2
    endloop
  endfacet
  facet normal 0.309017 0.951056 -0
    outer loop
      vertex 54.309 -0.951056 0
      vertex 53.191 -0.587785 2
      vertex 54.309 -0.951056 2
    endloop
  endfacet
  facet normal 0.309017 0.951056 0
    outer loop
      vertex 53.191 -0.587785 2
      vertex 54.309 -0.951056 0
      vertex 53.191 -0.587785 0
    endloop
  endfacet
  facet normal 0 -0.587785 0.809017
    outer loop
      vertex 40 0.951056 13.691
      vertex 42 0 13
      vertex 42 0.951056 13.691
    endloop
  endfacet
  facet normal 0 -0.587785 0.809017
    outer loop
      vertex 42 0 13
      vertex 40 0.951056 13.691
      vertex 40 0 13
    endloop
  endfacet
  facet normal 0 0 -1
    outer loop
      vertex 40 -0.587785 14.809
      vertex 42 0.587785 14.809
      vertex 42 -0.587785 14.809
    endloop
  endfacet
  facet normal -0 0 -1
    outer loop
      vertex 42 0.587785 14.809
      vertex 40 -0.587785 14.809
      vertex 40 0.587785 14.809
    endloop
  endfacet
  facet normal 0 -0.951056 -0.309017
    outer loop
      vertex 40 0.951056 13.691
      vertex 42 0.587785 14.809
      vertex 40 0.587785 14.809
    endloop
  endfacet
  facet normal 0 -0.951056 -0.309017
    outer loop
      vertex 42 0.587785 14.809
      vertex 40 0.951056 13.691
      vertex 42 0.951056 13.691
    endloop
  endfacet
  facet normal 0 0.951056 -0.309017
    outer loop
      vertex 42 -0.951056 13.691
      vertex 40 -0.587785 14.809
      vertex 42 -0.587785 14.809
    endloop
  endfacet
  facet normal 0 0.951056 -0.309017
    outer loop
      vertex 40 -0.587785 14.809
      vertex 42 -0.951056 13.691
      vertex 40 -0.951056 13.691
    endloop
  endfacet
  facet normal -0 0.587785 0.809017
    outer loop
      vertex 40 0 13
      vertex 42 -0.951056 13.691
      vertex 42 0 13
    endloop
  endfacet
  facet normal 0 0.587785 0.809017
    outer loop
      vertex 42 -0.951056 13.691
      vertex 40 0 13
      vertex 40 -0.951056 13.691
    endloop
  endfacet
  facet normal -0.707107 0 -0.707107
    outer loop
      vertex 42.6569 -7.5 0
      vertex 40 7.5 2.65685
      vertex 42.6569 7.5 0
    endloop
  endfacet
  facet normal -0.707107 -0 -0.707107
    outer loop
      vertex 40 7.5 2.65685
      vertex 42.6569 -7.5 0
      vertex 40 -7.5 2.65685
    endloop
  endfacet
  facet normal 0 1 0
    outer loop
      vertex 65 7.5 0
      vertex 40 7.5 2.65685
      vertex 40 7.5 25
    endloop
  endfacet
  facet normal 0 1 0
    outer loop
      vertex 40 7.5 2.65685
      vertex 65 7.5 0
      vertex 42.6569 7.5 0
    endloop
  endfacet
  facet normal 0 0 -1
    outer loop
      vertex 65 -7.5 0
      vertex 55 0 0
      vertex 65 7.5 0
    endloop
  endfacet
  facet normal 0 0 -1
    outer loop
      vertex 65 -7.5 0
      vertex 54.309 -0.951056 0
      vertex 55 0 0
    endloop
  endfacet
  facet normal 0 0 -1
    outer loop
      vertex 42.6569 -7.5 0
      vertex 54.309 -0.951056 0
      vertex 65 -7.5 0
    endloop
  endfacet
  facet normal -0 0 -1
    outer loop
      vertex 53.191 -0.587785 0
      vertex 42.6569 -7.5 0
      vertex 53.191 0.587785 0
    endloop
  endfacet
  facet normal -0 0 -1
    outer loop
      vertex 54.309 -0.951056 0
      vertex 42.6569 -7.5 0
      vertex 53.191 -0.587785 0
    endloop
  endfacet
  facet normal 0 0 -1
    outer loop
      vertex 54.309 0.951056 0
      vertex 65 7.5 0
      vertex 55 0 0
    endloop
  endfacet
  facet normal 0 0 -1
    outer loop
      vertex 42.6569 7.5 0
      vertex 54.309 0.951056 0
      vertex 53.191 0.587785 0
    endloop
  endfacet
  facet normal 0 0 -1
    outer loop
      vertex 54.309 0.951056 0
      vertex 42.6569 7.5 0
      vertex 65 7.5 0
    endloop
  endfacet
  facet normal 0 0 -1
    outer loop
      vertex 42.6569 7.5 0
      vertex 53.191 0.587785 0
      vertex 42.6569 -7.5 0
    endloop
  endfacet
  facet normal -1 0 0
    outer loop
      vertex 40 7.5 2.65685
      vertex 40 0.951056 13.691
      vertex 40 7.5 25
    endloop
  endfacet
  facet normal -1 0 0
    outer loop
      vertex 40 7.5 2.65685
      vertex 40 0 13
      vertex 40 0.951056 13.691
    endloop
  endfacet
  facet normal -1 0 0
    outer loop
      vertex 40 -7.5 2.65685
      vertex 40 0 13
      vertex 40 7.5 2.65685
    endloop
  endfacet
  facet normal -1 -0 0
    outer loop
      vertex 40 -0.951056 13.691
      vertex 40 -7.5 2.65685
      vertex 40 -7.5 25
    endloop
  endfacet
  facet normal -1 -0 0
    outer loop
      vertex 40 0 13
      vertex 40 -7.5 2.65685
      vertex 40 -0.951056 13.691
    endloop
  endfacet
  facet normal -1 0 0
    outer loop
      vertex 40 0.587785 14.809
      vertex 40 7.5 25
      vertex 40 0.951056 13.691
    endloop
  endfacet
  facet normal -1 0 0
    outer loop
      vertex 40 -0.587785 14.809
      vertex 40 7.5 25
      vertex 40 0.587785 14.809
    endloop
  endfacet
  facet normal -1 0 0
    outer loop
      vertex 40 -0.587785 14.809
      vertex 40 -7.5 25
      vertex 40 7.5 25
    endloop
  endfacet
  facet normal -1 0 0
    outer loop
      vertex 40 -7.5 25
      vertex 40 -0.587785 14.809
      vertex 40 -0.951056 13.691
    endloop
  endfacet
  facet normal 4.26831e-08 -1 4.26831e-08
    outer loop
      vertex 42.6569 -7.5 0
      vertex 40 -7.5 25
      vertex 40 -7.5 2.65685
    endloop
  endfacet
  facet normal 0 -1 3.8147e-08
    outer loop
      vertex 40 -7.5 25
      vertex 42.6569 -7.5 0
      vertex 65 -7.5 0
    endloop
  endfacet
  facet normal 0.707107 0 0.707107
    outer loop
      vertex 40 7.5 25
      vertex 43 5.5 22
      vertex 65 7.5 0
    endloop
  endfacet
  facet normal 0.707107 0 0.707107
    outer loop
      vertex 40 7.5 25
      vertex 43 -5.5 22
      vertex 43 5.5 22
    endloop
  endfacet
  facet normal 0.707107 0 0.707107
    outer loop
      vertex 43 -5.5 22
      vertex 40 -7.5 25
      vertex 62 -5.5 3
    endloop
  endfacet
  facet normal 0.707107 -0 0.707107
    outer loop
      vertex 40 -7.5 25
      vertex 43 -5.5 22
      vertex 40 7.5 25
    endloop
  endfacet
  facet normal 0.707107 0 0.707107
    outer loop
      vertex 62 5.5 3
      vertex 65 7.5 0
      vertex 43 5.5 22
    endloop
  endfacet
  facet normal 0.707107 -0 0.707107
    outer loop
      vertex 62 -5.5 3
      vertex 65 7.5 0
      vertex 62 5.5 3
    endloop
  endfacet
  facet normal 0.707107 0 0.707107
    outer loop
      vertex 62 -5.5 3
      vertex 65 -7.5 0
      vertex 65 7.5 0
    endloop
  endfacet
  facet normal 0.707107 0 0.707107
    outer loop
      vertex 65 -7.5 0
      vertex 62 -5.5 3
      vertex 40 -7.5 25
    endloop
  endfacet
endsolid OpenSCAD_Model
